<?xml version="1.0" encoding="utf-8"?>
<!-- Generator: Adobe Illustrator 22.0.0, SVG Export Plug-In . SVG Version: 6.00 Build 0)  -->
<svg version="1.1" id="Layer_1" xmlns="http://www.w3.org/2000/svg" xmlns:xlink="http://www.w3.org/1999/xlink" x="0px" y="0px"
	 viewBox="0 0 841.88977 226.77165" style="enable-background:new 0 0 841.88977 226.77165;" xml:space="preserve">
<style type="text/css">
	.st0{fill:#00A2FF;}
	.st1{fill:#F1F1F2;}
	.st2{fill:#F1F2F2;}
</style>
<g>
	<path d="M151.9072,159.06636V83.08952c0-3.64216,0.73665-6.72031,2.2123-9.23693c1.47331-2.51311,3.48943-4.50801,6.04892-5.98355
		c2.55714-1.47342,5.59465-2.53723,9.10703-3.18803c3.51225-0.65091,7.3054-0.97467,11.38388-0.97467
		c3.98817,0,7.67554,0.32376,11.05743,0.97467c3.38246,0.65079,6.31023,1.73639,8.7821,3.25316
		c2.47141,1.51794,4.42285,3.51284,5.85388,5.98366c1.43102,2.47305,2.14647,5.57417,2.14647,9.30206v23.15794
		c0,3.12279-0.56505,6.00768-1.6907,8.65232c-1.12834,2.64582-2.77678,4.9222-4.94386,6.82902
		c-2.16933,1.90799-4.8586,3.40543-8.06549,4.48751c-3.2097,1.08665-6.89589,1.62769-11.05847,1.62769
		c-2.60237,0-5.46442-0.26074-8.5872-0.78129v31.87328H151.9072z M187.16411,81.26962c0-3.90302-2.16943-5.85551-6.50479-5.85551
		c-4.33875,0-6.50584,1.9525-6.50584,5.85551v34.60472h4.68372c2.25517,0,4.20662-0.67024,5.85493-2.01553
		c1.64667-1.34399,2.47198-3.40297,2.47198-6.18033V81.26962z"/>
	<path d="M214.0934,83.08952c0-3.64216,0.73607-6.72031,2.21172-9.23693c1.47331-2.51311,3.49059-4.50801,6.04938-5.98355
		c2.55774-1.47342,5.59361-2.53723,9.10704-3.18803c3.51237-0.65091,7.3054-0.97467,11.38341-0.97467
		c3.98817,0,7.71782,0.32376,11.18826,0.97467c3.46832,0.65079,6.48242,1.73639,9.0419,3.25316
		c2.55716,1.51794,4.57385,3.51284,6.04941,5.98366c1.47281,2.47305,2.2117,5.57417,2.2117,9.30206v59.19496
		c0,3.72896-0.73889,6.8289-2.2117,9.29973c-1.47556,2.47304-3.49225,4.46806-6.04941,5.98599
		c-2.55948,1.51794-5.57358,2.6012-9.0419,3.25433c-3.47044,0.64857-7.20009,0.97339-11.18826,0.97339
		c-4.078,0-7.87103-0.32481-11.38341-0.97339c-3.51343-0.65314-6.5493-1.7159-9.10704-3.19037
		c-2.55879-1.47214-4.57607-3.46704-6.04938-5.98473c-1.47565-2.51427-2.21172-5.59244-2.21172-9.23576V83.08952z
		 M249.3502,81.26962c0-3.90302-2.16885-5.85551-6.50526-5.85551c-4.33817,0-6.50526,1.9525-6.50526,5.85551v63.09551
		c0,3.90408,2.1671,5.85553,6.50526,5.85553c4.33641,0,6.50526-1.95145,6.50526-5.85553V81.26962z"/>
	<path d="M280.57315,159.06636V66.43802h22.11697v92.62834H280.57315z"/>
	<path d="M347.70309,159.06636V81.26962c0-3.90302-2.16885-5.85551-6.50467-5.85551c-4.33817,0-6.50525,1.9525-6.50525,5.85551
		v77.79675H312.4469V83.08952c0-3.64216,0.73547-6.72031,2.2117-9.23693c1.47391-2.51311,3.49002-4.50801,6.0488-5.98355
		c2.55774-1.47342,5.59537-2.53723,9.10703-3.18803c3.51297-0.65091,7.306-0.97467,11.384-0.97467
		c3.98816,0,7.71829,0.32376,11.18826,0.97467c3.46774,0.65079,6.48126,1.73639,9.04132,3.25316
		c2.55832,1.51794,4.57385,3.51284,6.04996,5.98366c1.47449,2.47305,2.21115,5.57417,2.21115,9.30206v75.84647H347.70309z"/>
	<path d="M391.02597,159.06636V78.2772h-17.82401V66.43802h57.63461V78.2772h-17.6947v80.78916H391.02597z"/>
	<path class="st0" d="M487.94855,144.10545c0,6.59216-2.34268,11.21005-7.02582,13.85587
		c-4.68533,2.64348-11.4949,3.96698-20.42636,3.96698c-3.98865,0-7.63315-0.32481-10.92752-0.97339
		c-3.29779-0.65314-6.13687-1.73639-8.52078-3.25433c-2.3873-1.51793-4.22888-3.51295-5.52838-5.98599
		c-1.30286-2.47083-1.95261-5.57077-1.95261-9.29973v-15.22177h20.4252v17.17204c0,3.90408,2.16769,5.85553,6.50409,5.85553
		c2.16766,0,3.79431-0.54222,4.87991-1.6277c1.08209-1.08441,1.62534-2.92834,1.62534-5.52953v-8.06326
		c0-1.73534-0.36826-3.55641-1.10492-5.4644c-0.73898-1.908-2.01785-3.59859-3.83777-5.07541l-18.47375-15.09129
		c-3.29776-2.60119-5.64044-5.18059-7.02567-7.74067c-1.38757-2.55773-2.08194-5.7891-2.08194-9.69212v-9.10645
		c0-7.19846,2.2547-12.18461,6.76611-14.9608c4.50803-2.77396,11.27072-4.1627,20.29483-4.1627
		c3.98758,0,7.6308,0.32376,10.92752,0.97467c3.29556,0.65079,6.13467,1.73639,8.52078,3.25316
		c2.38495,1.51794,4.23004,3.51284,5.5307,5.98366c1.30054,2.47305,1.95029,5.57417,1.95029,9.30206v12.10004h-20.4252V81.26962
		c0-3.90302-2.16873-5.85551-6.50409-5.85551c-4.33994,0-6.50528,2.12762-6.50528,6.37477v6.37489
		c0,1.30066,0.06409,2.4296,0.19669,3.38248c0.12814,0.95511,0.36603,1.82108,0.71381,2.60236
		c0.34543,0.78011,0.82358,1.49615,1.43219,2.14589c0.60394,0.65091,1.38522,1.36695,2.34033,2.14706l19.64627,15.74219
		c2.86194,2.25682,5.00677,4.85812,6.43896,7.80592c1.42984,2.94884,2.14706,6.50409,2.14706,10.66785V144.10545z"/>
	<path class="st0" d="M564.31189,66.43802h22.24634v76.75694c0,3.20854-0.73553,5.98367-2.21118,8.32634
		c-1.47327,2.34151-3.4682,4.27234-5.98364,5.78806c-2.5177,1.51898-5.44366,2.64581-8.78162,3.38353
		c-3.33893,0.73782-6.87469,1.1062-10.60144,1.1062c-3.73022,0-6.96173-0.43585-9.69226-1.29948
		c-2.73376-0.86819-5.26984-2.16884-7.61133-3.90523c-2.51648,1.73639-5.18292,3.03703-8.00153,3.90523
		c-2.81964,0.86363-6.04999,1.29948-9.69214,1.29948c-3.7301,0-7.24188-0.36838-10.53741-1.1062
		c-3.29782-0.73772-6.17932-1.86455-8.65118-3.38353c-2.47198-1.51572-4.42343-3.44655-5.8533-5.78806
		c-1.43207-2.34267-2.14822-5.1178-2.14822-8.32634V66.43802h22.11707v77.2762c0,1.99503,0.45416,3.47057,1.36462,4.42462
		c0.91162,0.95393,2.49249,1.43207,4.74945,1.43207c2.1665,0,3.68561-0.52277,4.55377-1.56139
		c0.86597-1.04202,1.30066-2.64465,1.30066-4.81456V66.43802h21.72693v78.05865c0,1.47449,0.58447,2.68811,1.7558,3.64217
		c1.17139,0.95393,2.49146,1.43207,3.96814,1.43207c2.16888,0,3.70734-0.47813,4.61792-1.43207
		c0.91046-0.95406,1.36456-2.4296,1.36456-4.42462V66.43802z"/>
	<path class="st0" d="M611.66876,159.06636v-34.7352l-20.42517-57.89314h22.50592l11.06024,39.80944l10.92859-39.80944h20.0329
		l-21.46381,57.89314v34.7352H611.66876z"/>
	<path class="st0" d="M674.50458,159.06636V78.2772h-17.82166V66.43802h57.63342V78.2772h-17.69348v80.78916H674.50458z"/>
	<path class="st0" d="M752.30249,123.0305h20.42755v19.38435c0,3.72896-0.6521,6.8289-1.9538,9.29973
		c-1.3017,2.47304-3.14337,4.46806-5.52838,5.98599c-2.38611,1.51794-5.22638,2.6012-8.52075,3.25433
		c-3.29791,0.64857-6.94006,0.97339-10.92871,0.97339c-4.07684,0-7.87-0.32481-11.38281-0.97339
		c-3.5152-0.65314-6.54987-1.7159-9.1076-3.19037c-2.5589-1.47214-4.57666-3.46704-6.04889-5.98473
		c-1.47791-2.51427-2.21338-5.59244-2.21338-9.23576V83.08952c0-3.64216,0.73547-6.72031,2.21338-9.23693
		c1.47223-2.51311,3.48999-4.50801,6.04889-5.98355c2.55774-1.47342,5.59241-2.53723,9.1076-3.18803
		c3.51282-0.65091,7.30597-0.97467,11.38281-0.97467c3.98865,0,7.6308,0.32376,10.92871,0.97467
		c3.29437,0.65079,6.13464,1.73639,8.52075,3.25316c2.38501,1.51794,4.22668,3.51284,5.52838,5.98366
		c1.3017,2.47305,1.9538,5.57417,1.9538,9.30206v17.43396h-20.42755V81.26962c0-3.90302-2.16882-5.85551-6.50409-5.85551
		c-4.33875,0-6.50641,1.9525-6.50641,5.85551v63.09551c0,3.90408,2.16766,5.85553,6.50641,5.85553
		c4.33527,0,6.50409-1.95145,6.50409-5.85553V123.0305z"/>
	<path class="st0" d="M815.2699,159.06636v-44.49139h-12.48663v44.49139H780.664V66.43802h22.11926v35.386h12.48663v-35.386
		h21.98669v92.62834H815.2699z"/>
	<g>
		<g>
			<g>
				<g>
					<path class="st0" d="M33.98874,163.06531c-7.44209,0-14.42268-2.8802-19.65364-8.11234l-1.57451-1.57404
						c-10.83663-10.83827-10.83663-28.47124,0.00059-39.30846l41.55672-41.5573c5.23155-5.23096,12.21155-8.11246,19.65364-8.11246
						c7.44268,0,14.42268,2.88149,19.65423,8.11246l1.57346,1.57392c10.8371,10.83722,10.8371,28.47136,0.00047,39.30846
						l-41.55731,41.55743C48.41083,160.1851,41.43142,163.06531,33.98874,163.06531z M73.97153,73.45
						c-5.02504,0-9.73218,1.93996-13.25474,5.46206l-41.55672,41.55731c-7.30891,7.30833-7.30891,19.20128-0.00059,26.51065
						l1.57451,1.57405c3.52198,3.52315,8.2297,5.46312,13.25474,5.46312c5.02516,0,9.73218-1.93997,13.25474-5.46312
						l41.55684-41.55743c7.30879-7.30939,7.30879-19.20116,0-26.51066l-1.57346-1.57275
						C83.70429,75.38997,78.99657,73.45,73.97153,73.45z"/>
				</g>
			</g>
			<g>
				<g>
					<path class="st0" d="M46.18716,142.81627c-5.87953,5.88071-15.41211,5.88071-21.29176,0.00117
						c-5.87894-5.87953-5.87894-15.41152,0.00117-21.29117c5.87848-5.87953,15.41106-5.87953,21.28942,0
						C52.06552,127.40592,52.06552,136.93791,46.18716,142.81627z"/>
				</g>
			</g>
			<g>
				<g>
					<path class="st0" d="M114.04861,163.06531c-7.44268,0-14.42255-2.8802-19.65364-8.11234l-41.55789-41.55743
						c-10.83651-10.8371-10.83651-28.47124,0.00059-39.30846l1.57346-1.57392c5.23155-5.23096,12.21214-8.11246,19.65423-8.11246
						c7.44268,0,14.4221,2.88149,19.65423,8.11246l41.55732,41.5573c5.23154,5.23213,8.11244,12.21214,8.11244,19.65305
						c0,7.44327-2.88091,14.42328-8.11244,19.65541l-1.57452,1.57404C128.47072,160.1851,121.49083,163.06531,114.04861,163.06531z
						 M74.06535,73.45c-5.02515,0-9.73277,1.93996-13.25533,5.46323l-1.57346,1.57275
						c-7.3088,7.3095-7.3088,19.20127-0.00058,26.51066l41.5579,41.55743c3.52209,3.52315,8.22911,5.46312,13.25473,5.46312
						c5.02516,0,9.73277-1.93997,13.25486-5.46312l1.57452-1.57405c3.52257-3.52315,5.46207-8.23029,5.46207-13.2565
						c0-5.02504-1.9395-9.73217-5.46207-13.25415L87.32068,78.91206C83.79812,75.38997,79.09039,73.45,74.06535,73.45z"/>
				</g>
			</g>
			<g>
				<path class="st0" d="M101.8503,142.81627c5.87953,5.88071,15.41212,5.88071,21.29164,0.00117
					c5.87847-5.87953,5.87847-15.41152-0.00117-21.29117c-5.87836-5.87953-15.41094-5.87953-21.2893,0
					C95.97183,127.40592,95.97183,136.93791,101.8503,142.81627z"/>
			</g>
			<g>
				
					<rect x="68.3765" y="122.58912" transform="matrix(0.70708 -0.70713 0.70713 0.70708 -68.04463 90.22928)" class="st0" width="13.02531" height="9.31793"/>
			</g>
		</g>
	</g>
</g>
</svg>
