<?xml version="1.0" encoding="utf-8"?>
<!-- Generator: Adobe Illustrator 22.0.0, SVG Export Plug-In . SVG Version: 6.00 Build 0)  -->
<svg version="1.1" id="Layer_1" xmlns="http://www.w3.org/2000/svg" xmlns:xlink="http://www.w3.org/1999/xlink" x="0px" y="0px"
	 viewBox="0 0 243.77953 226.77165" style="enable-background:new 0 0 243.77953 226.77165;" xml:space="preserve">
<style type="text/css">
	.st0{fill:#00A2FF;}
	.st1{fill:#F1F1F2;}
	.st2{fill:#F1F2F2;}
</style>
<g>
	<g>
		<g>
			<g>
				<path class="st2" d="M45.55096,103.04179c-9.44755,9.44529-9.44755,24.76208-0.00625,34.20768
					c9.44898,9.4451,24.76331,9.4451,34.2084-0.00337c9.44519-9.44222,9.44519-24.75902-0.00236-34.20431
					C70.30803,93.59536,54.9937,93.59536,45.55096,103.04179z"/>
			</g>
			<g>
				<g>
					<path class="st2" d="M222.88306,91.06624L156.1158,24.30217c-8.40297-8.40544-19.61671-13.03344-31.57381-13.03344
						c-0.02541,0-0.05052,0.00185-0.07594,0.00185c-0.02541,0-0.05042-0.00185-0.07584-0.00185
						c-11.95371,0-23.16982,4.628-31.57423,13.03344L26.05262,91.06624c-17.41023,17.40798-17.41023,45.73761,0,63.14836
						l2.528,2.52933c8.40687,8.40594,19.62052,13.0318,31.57669,13.0318c11.95464,0,23.16838-4.62585,31.57526-13.0318
						l32.837-32.63069l32.6311,32.63069c8.40688,8.40594,19.62051,13.0318,31.57669,13.0318
						c11.95474,0,23.16838-4.62585,31.57526-13.0318l2.53046-2.52933c8.40051-8.40401,13.03067-19.62021,13.03067-31.57587
						C235.91373,110.68317,231.28357,99.46994,222.88306,91.06624z M127.97096,99.5427l-3.70498,3.70518l-23.548-23.54697
						c-11.74474-11.74197-11.74474-30.84706,0-42.59007l2.53045-2.52676c5.63844-5.64162,13.17221-8.7537,21.21761-8.77327
						c8.04304,0.01958,15.57948,3.13166,21.22118,8.77327l2.52554,2.52676c11.7433,11.743,11.7433,30.8481,0,42.59007
						L127.97096,99.5427z M81.45187,146.46376c-5.65975,5.66026-13.22273,8.77542-21.29457,8.77542
						c-8.07327,0-15.63584-3.11516-21.29601-8.77542l-2.53046-2.52995c-11.74084-11.74176-11.74084-30.84686,0-42.59016
						L77.42426,60.2533c0.44357,10.81168,4.77723,21.49176,13.01305,29.72809l23.5481,23.5478L81.45187,146.46376z
						 M212.60237,143.93381l-2.53046,2.52995c-5.65781,5.66026-13.22284,8.77542-21.29457,8.77542
						c-8.07666,0-15.63728-3.11516-21.29366-8.77542l-32.63211-32.6308l23.64433-23.85157
						c8.23582-8.23705,12.56895-18.91826,13.01161-29.73096l41.09485,41.09321c5.65627,5.66047,8.77101,13.21996,8.77101,21.29508
						C221.37338,130.71446,218.25864,138.27415,212.60237,143.93381z"/>
				</g>
			</g>
			<g>
				<path class="st2" d="M169.17856,103.04179c-9.44365,9.44529-9.44365,24.76208,0,34.20431
					c9.44754,9.44847,24.76096,9.44847,34.20851,0.00337c9.44272-9.44559,9.44272-24.76239-0.00482-34.20768
					C193.93951,93.59536,178.6261,93.59536,169.17856,103.04179z"/>
			</g>
		</g>
		<path class="st2" d="M12.8909,214.5714v-24.73526c0-1.18567,0.23955-2.18802,0.72063-3.00757
			c0.4791-0.8181,1.13572-1.46742,1.96883-1.94801c0.83266-0.4796,1.82094-0.82536,2.9659-1.03775
			c1.14347-0.21239,2.37716-0.31715,3.7054-0.31715c1.29914,0,2.49986,0.10477,3.60067,0.31715
			c1.10081,0.21239,2.05324,0.56546,2.85919,1.0591c0.80356,0.49464,1.43928,1.14397,1.90531,1.94847
			c0.46604,0.80499,0.69834,1.81419,0.69834,3.02847v7.53932c0,1.01688-0.18334,1.95621-0.55041,2.81697
			c-0.36806,0.86127-0.90347,1.60225-1.60905,2.22298c-0.70703,0.62122-1.58135,1.10855-2.62595,1.46063
			c-1.04549,0.354-2.24522,0.53053-3.60062,0.53053c-0.84721,0-1.77829-0.08536-2.79568-0.25459v10.37671H12.8909z
			 M24.36986,189.24358c0-1.27054-0.70653-1.90631-2.11819-1.90631c-1.41261,0-2.1182,0.63577-2.1182,1.90631v11.26607h1.52514
			c0.73369,0,1.36996-0.21825,1.90531-0.65613c0.5368-0.43793,0.80594-1.10811,0.80594-2.01152V189.24358z"/>
		<path class="st2" d="M33.13657,189.83614c0-1.18567,0.24054-2.18802,0.72013-3.00757
			c0.48059-0.8181,1.13622-1.46742,1.97031-1.94801c0.83167-0.4796,1.82095-0.82536,2.96441-1.03775
			c1.14352-0.21239,2.37865-0.31715,3.7059-0.31715c1.29869,0,2.51297,0.10477,3.64333,0.31715
			c1.12847,0.21239,2.1095,0.56546,2.94212,1.0591c0.83316,0.49464,1.48973,1.14397,1.97031,1.94847
			c0.4796,0.80499,0.71919,1.81419,0.71919,3.02847v19.27142c0,1.21379-0.2396,2.22342-0.71919,3.02744
			c-0.48059,0.8055-1.13716,1.45482-1.97031,1.94945c-0.83261,0.49414-1.81364,0.84622-2.94212,1.0591
			c-1.13036,0.21144-2.34464,0.31667-3.64333,0.31667c-1.32725,0-2.56238-0.10522-3.7059-0.31667
			c-1.14347-0.21288-2.13274-0.55864-2.96441-1.03824c-0.8341-0.47958-1.48973-1.12892-1.97031-1.94896
			c-0.47959-0.81856-0.72013-1.82045-0.72013-3.00662V189.83614z M44.61552,189.24358c0-1.27054-0.70559-1.90631-2.11819-1.90631
			s-2.11819,0.63577-2.11819,1.90631v20.54196c0,1.27049,0.70559,1.90627,2.11819,1.90627s2.11819-0.63577,2.11819-1.90627
			V189.24358z"/>
		<path class="st2" d="M54.78078,214.5714v-30.15683h7.19991v30.15683H54.78078z"/>
		<path class="st2" d="M76.636,214.5714v-25.32782c0-1.27054-0.70559-1.90631-2.11825-1.90631
			c-1.41261,0-2.11819,0.63577-2.11819,1.90631v25.32782h-7.24252v-24.73526c0-1.18567,0.23955-2.18802,0.72009-3.00757
			c0.48058-0.8181,1.13622-1.46742,1.97031-1.94801c0.83167-0.4796,1.82095-0.82536,2.96347-1.03775
			c1.14445-0.21239,2.37959-0.31715,3.70684-0.31715c1.2987,0,2.51298,0.10477,3.64338,0.31715
			c1.12842,0.21239,2.10946,0.56546,2.94212,1.0591c0.83311,0.49464,1.48973,1.14397,1.97027,1.94847
			c0.47964,0.80499,0.71918,1.81419,0.71918,3.02847v24.69255H76.636z"/>
		<path class="st2" d="M90.73941,214.5714v-26.30206h-5.80324v-3.85477h18.76467v3.85477h-5.76153v26.30206H90.73941z"/>
		<path class="st2" d="M122.29385,209.70113c0,2.14586-0.76185,3.64963-2.28699,4.51039
			c-1.52513,0.86127-3.74225,1.2914-6.65044,1.2914c-1.29771,0-2.48383-0.10522-3.55653-0.31667
			c-1.07365-0.21288-1.99843-0.56496-2.77482-1.0591c-0.77685-0.49463-1.37627-1.14395-1.7991-1.94945
			c-0.42432-0.80402-0.63626-1.81364-0.63626-3.02744v-4.95558h6.64951v5.59085c0,1.27049,0.70558,1.90627,2.1172,1.90627
			c0.70658,0,1.23613-0.17699,1.58865-0.5305c0.35207-0.35257,0.5296-0.95242,0.5296-1.80008v-2.62451
			c0-0.56496-0.11983-1.15802-0.35987-1.77972c-0.24049-0.62122-0.65658-1.17163-1.24969-1.65216l-6.01369-4.91293
			c-1.07365-0.84715-1.83693-1.68661-2.28793-2.52022c-0.45148-0.8331-0.67747-1.88495-0.67747-3.15549v-2.96442
			c0-2.3432,0.73468-3.9673,2.20355-4.87122c1.46645-0.90244,3.66762-1.3549,6.6068-1.3549
			c1.29865,0,2.48387,0.10477,3.55752,0.31715c1.07265,0.21239,1.99743,0.56546,2.77383,1.0591
			c0.7764,0.49464,1.3772,1.14397,1.80009,1.94847c0.42432,0.80499,0.63622,1.81419,0.63622,3.02847v3.93913h-6.65089v-4.5744
			c0-1.27054-0.70558-1.90631-2.11675-1.90631c-1.41261,0-2.1182,0.69247-2.1182,2.07555v2.07553
			c0,0.42334,0.02086,0.79045,0.06351,1.10081c0.04171,0.31129,0.11977,0.59306,0.2323,0.84766
			c0.11247,0.25409,0.26914,0.48639,0.46698,0.69833c0.1959,0.21188,0.45148,0.44513,0.76234,0.69928l6.3963,5.12431
			c0.93157,0.73518,1.62891,1.58185,2.09589,2.54158c0.4646,0.96017,0.69834,2.11819,0.69834,3.4731V209.70113z"/>
		<path class="st2" d="M147.15613,184.41457h7.24252v24.9893c0,1.04456-0.23955,1.94847-0.72014,2.71176
			c-0.4796,0.76184-1.13036,1.3903-1.94847,1.884c-0.81905,0.49464-1.77197,0.86127-2.85918,1.1013
			c-1.08577,0.24049-2.23802,0.36076-3.45131,0.36076c-1.21428,0-2.26613-0.14206-3.1555-0.42332
			c-0.89035-0.28275-1.71571-0.70703-2.47755-1.27199c-0.81955,0.56496-1.68758,0.98924-2.60509,1.27199
			c-0.91847,0.28127-1.96883,0.42332-3.15546,0.42332c-1.21432,0-2.35779-0.12027-3.4305-0.36076
			c-1.07364-0.24004-2.01147-0.60666-2.81647-1.1013c-0.8045-0.4937-1.44077-1.12216-1.90532-1.884
			c-0.46603-0.76329-0.69927-1.66721-0.69927-2.71176v-24.9893h7.19936v25.15904c0,0.64932,0.14793,1.12941,0.44519,1.43977
			c0.2963,0.31085,0.81081,0.46652,1.54599,0.46652c0.70558,0,1.19972-0.16972,1.48242-0.50824
			c0.28226-0.33896,0.42433-0.86076,0.42433-1.56779v-24.9893h7.07233v25.41364c0,0.47958,0.19109,0.87482,0.57127,1.18518
			c0.38161,0.31085,0.81224,0.46652,1.29283,0.46652c0.70558,0,1.20703-0.15567,1.50284-0.46652
			c0.29631-0.31036,0.44518-0.79045,0.44518-1.43977V184.41457z"/>
		<path class="st2" d="M162.57323,214.5714v-11.30779l-6.64944-18.84904h7.32693l3.60068,12.96138l3.55896-12.96138h6.52094
			l-6.98842,18.84904v11.30779H162.57323z"/>
		<path class="st2" d="M183.03033,214.5714v-26.30206h-5.80179v-3.85477h18.76323v3.85477h-5.76059v26.30206H183.03033z"/>
		<path class="st2" d="M208.35866,202.83978h6.65045v6.31049c0,1.21379-0.21144,2.22342-0.63577,3.02744
			c-0.42339,0.8055-1.0237,1.45482-1.80058,1.94945c-0.7764,0.49414-1.70117,0.84622-2.77338,1.0591
			c-1.0741,0.21144-2.26027,0.31667-3.55797,0.31667c-1.32681,0-2.56194-0.10522-3.70685-0.31667
			c-1.14351-0.21288-2.13181-0.55864-2.96446-1.03824c-0.83261-0.47958-1.48973-1.12892-1.96883-1.94896
			c-0.48203-0.81856-0.72063-1.82045-0.72063-3.00662v-19.35629c0-1.18567,0.2386-2.18802,0.72063-3.00757
			c0.4791-0.8181,1.13622-1.46742,1.96883-1.94801c0.83266-0.4796,1.82095-0.82536,2.96446-1.03775
			c1.14491-0.21239,2.38004-0.31715,3.70685-0.31715c1.2977,0,2.48387,0.10477,3.55797,0.31715
			c1.0722,0.21239,1.99698,0.56546,2.77338,1.0591c0.77689,0.49464,1.3772,1.14397,1.80058,1.94847
			c0.42433,0.80499,0.63577,1.81419,0.63577,3.02847v5.67616h-6.65045v-6.31143c0-1.27054-0.70558-1.90631-2.11725-1.90631
			c-1.41261,0-2.11819,0.63577-2.11819,1.90631v20.54196c0,1.27049,0.70558,1.90627,2.11819,1.90627
			c1.41167,0,2.11725-0.63577,2.11725-1.90627V202.83978z"/>
		<path class="st2" d="M228.85841,214.5714v-14.48463h-4.06522v14.48463h-7.20085v-30.15683h7.20085v11.52068h4.06522v-11.52068
			h7.15814v30.15683H228.85841z"/>
	</g>
</g>
</svg>
